<svg width="1920" height="110" viewBox="0 0 1920 110" fill="none" xmlns="http://www.w3.org/2000/svg">
<rect width="1920" height="110" fill="#00093C"/>
<path d="M386.467 90.6464C377.385 90.6464 370 83.2611 370 74.1793C370 65.0974 377.385 57.7122 386.467 57.7122C395.549 57.7122 402.934 65.0974 402.934 74.1793C402.934 83.311 395.549 90.6464 386.467 90.6464Z" fill="white"/>
<path d="M386.467 90.6464C377.385 90.6464 370 83.2611 370 74.1793C370 65.0974 377.385 57.7122 386.467 57.7122C395.549 57.7122 402.934 65.0974 402.934 74.1793C402.934 83.311 395.549 90.6464 386.467 90.6464Z" fill="white"/>
<path d="M425.389 21.8336L407.525 51.0253C407.026 51.8736 407.575 52.9215 408.523 52.9215H426.387H444.252C445.2 52.9215 445.749 51.8237 445.25 51.0253L427.385 21.8336C426.886 21.0851 425.839 21.0851 425.389 21.8336Z" fill="white"/>
<path d="M402.585 26.774L396.148 20.3368C395.698 19.8877 394.9 19.8877 394.451 20.3368L387.365 27.4227C386.916 27.8718 386.118 27.8718 385.668 27.4227L378.583 20.3368C378.134 19.8877 377.335 19.8877 376.886 20.3368L370.449 26.774C370 27.2231 370 28.0215 370.449 28.4706L377.535 35.5564C377.984 36.0055 377.984 36.8039 377.535 37.253L370.449 44.3389C370 44.788 370 45.5864 370.449 46.0355L376.886 52.4726C377.335 52.9217 378.134 52.9217 378.583 52.4726L385.668 45.3868C386.118 44.9377 386.916 44.9377 387.365 45.3868L394.451 52.4726C394.9 52.9217 395.698 52.9217 396.148 52.4726L402.585 46.0355C403.034 45.5864 403.034 44.788 402.585 44.3389L395.499 37.253C395.05 36.8039 395.05 36.0055 395.499 35.5564L402.585 28.4706C403.084 28.0215 403.084 27.273 402.585 26.774Z" fill="white"/>
<path d="M410.668 69.0892V71.185H414.311V72.6321H410.668V75.4764H408.872V67.6421H414.76V69.0892H410.668Z" fill="white"/>
<path d="M417.206 74.678C416.607 74.0792 416.258 73.181 416.258 72.0333V67.6421H418.054V71.9335C418.054 73.3307 418.653 74.0293 419.801 74.0293C420.35 74.0293 420.799 73.8796 421.098 73.5303C421.397 73.181 421.547 72.682 421.547 71.9335V67.6421H423.344V72.0333C423.344 73.181 423.044 74.0792 422.395 74.678C421.797 75.2768 420.898 75.6261 419.801 75.6261C418.703 75.6261 417.805 75.2768 417.206 74.678Z" fill="white"/>
<path d="M426.936 69.1391H424.441V67.6421H431.227V69.1391H428.732V75.4764H426.936V69.1391Z" fill="white"/>
<path d="M433.273 74.678C432.674 74.0792 432.325 73.181 432.325 72.0333V67.6421H434.122V71.9335C434.122 73.3307 434.72 74.0293 435.868 74.0293C436.417 74.0293 436.866 73.8796 437.166 73.5303C437.465 73.181 437.615 72.682 437.615 71.9335V67.6421H439.411V72.0333C439.411 73.181 439.112 74.0792 438.463 74.678C437.864 75.2768 436.966 75.6261 435.868 75.6261C434.77 75.6261 433.922 75.2768 433.273 74.678Z" fill="white"/>
<path d="M446.497 75.4768L445 73.2812H444.9H443.303V75.4768H441.507V67.6924H444.9C445.599 67.6924 446.198 67.7922 446.697 68.0417C447.196 68.2912 447.595 68.5906 447.894 69.0397C448.144 69.4389 448.293 69.9878 448.293 70.5367C448.293 71.1355 448.144 71.6345 447.894 72.0337C447.595 72.4329 447.196 72.7822 446.697 72.9818L448.443 75.4768H446.497ZM446.048 69.4888C445.749 69.2393 445.349 69.1395 444.8 69.1395H443.303V71.884H444.8C445.349 71.884 445.749 71.7842 446.048 71.5347C446.347 71.2852 446.447 70.9858 446.447 70.5367C446.497 70.0377 446.347 69.7383 446.048 69.4888Z" fill="white"/>
<path d="M456.128 74.0293V75.4764H450.09V67.6421H455.978V69.0892H451.886V70.7858H455.479V72.2329H451.886V74.0293H456.128Z" fill="white"/>
<path d="M414.012 88.2512H410.369L409.671 89.9478H407.824L411.317 82.1633H413.114L416.607 89.9478H414.711L414.012 88.2512ZM413.463 86.9039L412.216 83.9098L410.968 86.9039H413.463Z" fill="white"/>
<path d="M419.202 89.5485C418.553 89.1992 418.054 88.7002 417.705 88.1014C417.355 87.5026 417.156 86.804 417.156 86.0056C417.156 85.257 417.355 84.5584 417.705 83.9097C418.054 83.3109 418.603 82.8119 419.202 82.4626C419.85 82.1133 420.549 81.9636 421.347 81.9636C422.046 81.9636 422.645 82.0634 423.194 82.3129C423.743 82.5624 424.192 82.9117 424.591 83.3608L423.443 84.4087C422.894 83.8099 422.246 83.5105 421.497 83.5105C420.998 83.5105 420.599 83.6103 420.2 83.8099C419.8 84.0095 419.501 84.3089 419.301 84.7081C419.102 85.1073 419.002 85.5065 419.002 86.0056C419.002 86.5046 419.102 86.9038 419.301 87.303C419.501 87.7022 419.8 88.0016 420.2 88.2012C420.599 88.4008 420.998 88.5006 421.497 88.5006C422.295 88.5006 422.944 88.2012 423.443 87.5525L424.591 88.6004C424.242 89.0495 423.743 89.3988 423.194 89.6483C422.645 89.8978 422.046 89.9976 421.347 89.9976C420.599 90.0475 419.85 89.8978 419.202 89.5485Z" fill="white"/>
<path d="M431.128 88.2512H427.485L426.786 89.9478H424.94L428.433 82.1633H430.229L433.722 89.9478H431.826L431.128 88.2512ZM430.579 86.9039L429.331 83.9098L428.084 86.9039H430.579Z" fill="white"/>
<path d="M434.87 82.1133H438.413C439.262 82.1133 440.01 82.263 440.659 82.6123C441.307 82.9117 441.806 83.4107 442.156 83.9596C442.505 84.5584 442.705 85.2071 442.705 86.0055C442.705 86.8039 442.505 87.4526 442.156 88.0514C441.806 88.6502 441.307 89.0993 440.659 89.3987C440.01 89.6981 439.262 89.8977 438.413 89.8977H434.87V82.1133ZM438.313 88.4506C439.112 88.4506 439.711 88.251 440.16 87.8019C440.609 87.3528 440.858 86.754 440.858 86.0554C440.858 85.3069 440.609 84.7081 440.16 84.3089C439.711 83.8598 439.062 83.6602 438.313 83.6602H436.667V88.5005H438.313V88.4506Z" fill="white"/>
<path d="M450.439 88.5005V89.9476H444.401V82.1133H450.289V83.5604H446.198V85.257H449.84V86.6542H446.198V88.5005H450.439Z" fill="white"/>
<path d="M459.321 89.9476V85.257L457.026 89.0993H456.228L453.932 85.3568V89.9476H452.236V82.1133H453.733L456.627 86.9536L459.521 82.1133H461.018V89.9476H459.321Z" fill="white"/>
<path d="M466.956 87.1532V89.9476H465.16V87.1532L462.116 82.1133H464.062L466.158 85.6063L468.204 82.1133H470L466.956 87.1532Z" fill="white"/>
<path d="M566.778 54.918C567.441 55.0767 567.94 55.3613 568.276 55.772C568.622 56.1733 568.794 56.6913 568.794 57.326C568.794 58.1753 568.482 58.8333 567.856 59.3C567.24 59.7667 566.34 60 565.154 60H560.674V50.2H564.888C565.962 50.2 566.797 50.4193 567.394 50.858C568.001 51.2873 568.304 51.908 568.304 52.72C568.304 53.252 568.169 53.7047 567.898 54.078C567.637 54.4513 567.264 54.7313 566.778 54.918ZM562.06 54.512H564.79C565.472 54.512 565.99 54.3767 566.344 54.106C566.708 53.8353 566.89 53.4387 566.89 52.916C566.89 52.3933 566.708 51.9967 566.344 51.726C565.98 51.446 565.462 51.306 564.79 51.306H562.06V54.512ZM565.126 58.894C566.629 58.894 567.38 58.334 567.38 57.214C567.38 56.654 567.189 56.2433 566.806 55.982C566.433 55.7113 565.873 55.576 565.126 55.576H562.06V58.894H565.126ZM574.143 60.084C573.387 60.084 572.711 59.9207 572.113 59.594C571.525 59.2673 571.063 58.8193 570.727 58.25C570.391 57.6713 570.223 57.018 570.223 56.29C570.223 55.562 570.391 54.9133 570.727 54.344C571.063 53.7653 571.525 53.3173 572.113 53C572.711 52.6733 573.387 52.51 574.143 52.51C574.815 52.51 575.413 52.6453 575.935 52.916C576.467 53.1867 576.878 53.5787 577.167 54.092L576.145 54.75C575.912 54.3953 575.623 54.1293 575.277 53.952C574.932 53.7747 574.549 53.686 574.129 53.686C573.644 53.686 573.205 53.7933 572.813 54.008C572.431 54.2227 572.127 54.5307 571.903 54.932C571.689 55.324 571.581 55.7767 571.581 56.29C571.581 56.8127 571.689 57.2747 571.903 57.676C572.127 58.068 572.431 58.3713 572.813 58.586C573.205 58.8007 573.644 58.908 574.129 58.908C574.549 58.908 574.932 58.8193 575.277 58.642C575.623 58.4647 575.912 58.1987 576.145 57.844L577.167 58.488C576.878 59.0013 576.467 59.398 575.935 59.678C575.413 59.9487 574.815 60.084 574.143 60.084ZM585.504 56.332C585.504 56.4347 585.495 56.57 585.476 56.738H579.456C579.54 57.3913 579.825 57.9187 580.31 58.32C580.805 58.712 581.416 58.908 582.144 58.908C583.031 58.908 583.745 58.6093 584.286 58.012L585.028 58.88C584.692 59.272 584.272 59.5707 583.768 59.776C583.273 59.9813 582.718 60.084 582.102 60.084C581.318 60.084 580.623 59.9253 580.016 59.608C579.409 59.2813 578.938 58.8287 578.602 58.25C578.275 57.6713 578.112 57.018 578.112 56.29C578.112 55.5713 578.271 54.9227 578.588 54.344C578.915 53.7653 579.358 53.3173 579.918 53C580.487 52.6733 581.127 52.51 581.836 52.51C582.545 52.51 583.175 52.6733 583.726 53C584.286 53.3173 584.72 53.7653 585.028 54.344C585.345 54.9227 585.504 55.5853 585.504 56.332ZM581.836 53.644C581.192 53.644 580.651 53.84 580.212 54.232C579.783 54.624 579.531 55.1373 579.456 55.772H584.216C584.141 55.1467 583.885 54.638 583.446 54.246C583.017 53.8447 582.48 53.644 581.836 53.644ZM594.233 56.864H592.693V60H591.349V52.58H592.693V55.716H594.261L596.669 52.58H598.111L595.297 56.15L598.307 60H596.725L594.233 56.864ZM605.914 52.58L602.316 60.742C601.999 61.498 601.626 62.03 601.196 62.338C600.776 62.646 600.268 62.8 599.67 62.8C599.306 62.8 598.952 62.7393 598.606 62.618C598.27 62.506 597.99 62.338 597.766 62.114L598.34 61.106C598.723 61.47 599.166 61.652 599.67 61.652C599.997 61.652 600.268 61.5633 600.482 61.386C600.706 61.218 600.907 60.924 601.084 60.504L601.322 59.986L598.046 52.58H599.446L602.036 58.516L604.598 52.58H605.914ZM611.224 52.51C611.943 52.51 612.587 52.6687 613.156 52.986C613.726 53.3033 614.169 53.7467 614.486 54.316C614.813 54.8853 614.976 55.5433 614.976 56.29C614.976 57.0367 614.813 57.6993 614.486 58.278C614.169 58.8473 613.726 59.2907 613.156 59.608C612.587 59.9253 611.943 60.084 611.224 60.084C610.692 60.084 610.202 59.9813 609.754 59.776C609.316 59.5707 608.942 59.272 608.634 58.88V62.716H607.29V52.58H608.578V53.756C608.877 53.3453 609.255 53.0373 609.712 52.832C610.17 52.6173 610.674 52.51 611.224 52.51ZM611.112 58.908C611.588 58.908 612.013 58.8007 612.386 58.586C612.769 58.362 613.068 58.054 613.282 57.662C613.506 57.2607 613.618 56.8033 613.618 56.29C613.618 55.7767 613.506 55.324 613.282 54.932C613.068 54.5307 612.769 54.2227 612.386 54.008C612.013 53.7933 611.588 53.686 611.112 53.686C610.646 53.686 610.221 53.798 609.838 54.022C609.465 54.2367 609.166 54.54 608.942 54.932C608.728 55.324 608.62 55.7767 608.62 56.29C608.62 56.8033 608.728 57.2607 608.942 57.662C609.157 58.054 609.456 58.362 609.838 58.586C610.221 58.8007 610.646 58.908 611.112 58.908ZM620.163 60.084C619.407 60.084 618.73 59.9207 618.133 59.594C617.545 59.2673 617.083 58.8193 616.747 58.25C616.411 57.6713 616.243 57.018 616.243 56.29C616.243 55.562 616.411 54.9133 616.747 54.344C617.083 53.7653 617.545 53.3173 618.133 53C618.73 52.6733 619.407 52.51 620.163 52.51C620.835 52.51 621.432 52.6453 621.955 52.916C622.487 53.1867 622.898 53.5787 623.187 54.092L622.165 54.75C621.932 54.3953 621.642 54.1293 621.297 53.952C620.952 53.7747 620.569 53.686 620.149 53.686C619.664 53.686 619.225 53.7933 618.833 54.008C618.45 54.2227 618.147 54.5307 617.923 54.932C617.708 55.324 617.601 55.7767 617.601 56.29C617.601 56.8127 617.708 57.2747 617.923 57.676C618.147 58.068 618.45 58.3713 618.833 58.586C619.225 58.8007 619.664 58.908 620.149 58.908C620.569 58.908 620.952 58.8193 621.297 58.642C621.642 58.4647 621.932 58.1987 622.165 57.844L623.187 58.488C622.898 59.0013 622.487 59.398 621.955 59.678C621.432 59.9487 620.835 60.084 620.163 60.084ZM628.273 55.1C629.206 55.1093 629.92 55.324 630.415 55.744C630.91 56.164 631.157 56.7567 631.157 57.522C631.157 58.3247 630.886 58.9453 630.345 59.384C629.813 59.8133 629.048 60.0233 628.049 60.014L624.927 60V52.58H626.271V55.086L628.273 55.1ZM632.263 52.58H633.607V60H632.263V52.58ZM627.951 58.992C628.558 59.0013 629.015 58.88 629.323 58.628C629.64 58.376 629.799 58.0027 629.799 57.508C629.799 57.0227 629.645 56.668 629.337 56.444C629.029 56.22 628.567 56.1033 627.951 56.094L626.271 56.066V58.978L627.951 58.992Z" fill="white"/>
<rect x="534" y="48.5139" width="18" height="4.99717" rx="1" stroke="white" stroke-width="2"/>
<rect x="534" y="57.4858" width="18" height="5" rx="1" stroke="white" stroke-width="2"/>
<path d="M685.76 60L685.746 52.86L682.204 58.81H681.56L678.018 52.902V60H676.674V50.2H677.822L681.91 57.088L685.942 50.2H687.09L687.104 60H685.76ZM696.637 56.332C696.637 56.4347 696.628 56.57 696.609 56.738H690.589C690.673 57.3913 690.958 57.9187 691.443 58.32C691.938 58.712 692.549 58.908 693.277 58.908C694.164 58.908 694.878 58.6093 695.419 58.012L696.161 58.88C695.825 59.272 695.405 59.5707 694.901 59.776C694.406 59.9813 693.851 60.084 693.235 60.084C692.451 60.084 691.756 59.9253 691.149 59.608C690.542 59.2813 690.071 58.8287 689.735 58.25C689.408 57.6713 689.245 57.018 689.245 56.29C689.245 55.5713 689.404 54.9227 689.721 54.344C690.048 53.7653 690.491 53.3173 691.051 53C691.62 52.6733 692.26 52.51 692.969 52.51C693.678 52.51 694.308 52.6733 694.859 53C695.419 53.3173 695.853 53.7653 696.161 54.344C696.478 54.9227 696.637 55.5853 696.637 56.332ZM692.969 53.644C692.325 53.644 691.784 53.84 691.345 54.232C690.916 54.624 690.664 55.1373 690.589 55.772H695.349C695.274 55.1467 695.018 54.638 694.579 54.246C694.15 53.8447 693.613 53.644 692.969 53.644ZM702.656 52.51C703.375 52.51 704.019 52.6687 704.588 52.986C705.157 53.3033 705.601 53.7467 705.918 54.316C706.245 54.8853 706.408 55.5433 706.408 56.29C706.408 57.0367 706.245 57.6993 705.918 58.278C705.601 58.8473 705.157 59.2907 704.588 59.608C704.019 59.9253 703.375 60.084 702.656 60.084C702.124 60.084 701.634 59.9813 701.186 59.776C700.747 59.5707 700.374 59.272 700.066 58.88V62.716H698.722V52.58H700.01V53.756C700.309 53.3453 700.687 53.0373 701.144 52.832C701.601 52.6173 702.105 52.51 702.656 52.51ZM702.544 58.908C703.02 58.908 703.445 58.8007 703.818 58.586C704.201 58.362 704.499 58.054 704.714 57.662C704.938 57.2607 705.05 56.8033 705.05 56.29C705.05 55.7767 704.938 55.324 704.714 54.932C704.499 54.5307 704.201 54.2227 703.818 54.008C703.445 53.7933 703.02 53.686 702.544 53.686C702.077 53.686 701.653 53.798 701.27 54.022C700.897 54.2367 700.598 54.54 700.374 54.932C700.159 55.324 700.052 55.7767 700.052 56.29C700.052 56.8033 700.159 57.2607 700.374 57.662C700.589 58.054 700.887 58.362 701.27 58.586C701.653 58.8007 702.077 58.908 702.544 58.908ZM711.539 60.084C710.801 60.084 710.139 59.9207 709.551 59.594C708.963 59.2673 708.501 58.8193 708.165 58.25C707.838 57.6713 707.675 57.018 707.675 56.29C707.675 55.562 707.838 54.9133 708.165 54.344C708.501 53.7653 708.963 53.3173 709.551 53C710.139 52.6733 710.801 52.51 711.539 52.51C712.276 52.51 712.934 52.6733 713.513 53C714.101 53.3173 714.558 53.7653 714.885 54.344C715.221 54.9133 715.389 55.562 715.389 56.29C715.389 57.018 715.221 57.6713 714.885 58.25C714.558 58.8193 714.101 59.2673 713.513 59.594C712.934 59.9207 712.276 60.084 711.539 60.084ZM711.539 58.908C712.015 58.908 712.439 58.8007 712.813 58.586C713.195 58.362 713.494 58.054 713.709 57.662C713.923 57.2607 714.031 56.8033 714.031 56.29C714.031 55.7767 713.923 55.324 713.709 54.932C713.494 54.5307 713.195 54.2227 712.813 54.008C712.439 53.7933 712.015 53.686 711.539 53.686C711.063 53.686 710.633 53.7933 710.251 54.008C709.877 54.2227 709.579 54.5307 709.355 54.932C709.14 55.324 709.033 55.7767 709.033 56.29C709.033 56.8033 709.14 57.2607 709.355 57.662C709.579 58.054 709.877 58.362 710.251 58.586C710.633 58.8007 711.063 58.908 711.539 58.908ZM724.203 52.58V60H722.859V53.756H718.673V60H717.329V52.58H724.203ZM730.738 52.51C731.457 52.51 732.101 52.6687 732.67 52.986C733.239 53.3033 733.683 53.7467 734 54.316C734.327 54.8853 734.49 55.5433 734.49 56.29C734.49 57.0367 734.327 57.6993 734 58.278C733.683 58.8473 733.239 59.2907 732.67 59.608C732.101 59.9253 731.457 60.084 730.738 60.084C730.206 60.084 729.716 59.9813 729.268 59.776C728.829 59.5707 728.456 59.272 728.148 58.88V62.716H726.804V52.58H728.092V53.756C728.391 53.3453 728.769 53.0373 729.226 52.832C729.683 52.6173 730.187 52.51 730.738 52.51ZM730.626 58.908C731.102 58.908 731.527 58.8007 731.9 58.586C732.283 58.362 732.581 58.054 732.796 57.662C733.02 57.2607 733.132 56.8033 733.132 56.29C733.132 55.7767 733.02 55.324 732.796 54.932C732.581 54.5307 732.283 54.2227 731.9 54.008C731.527 53.7933 731.102 53.686 730.626 53.686C730.159 53.686 729.735 53.798 729.352 54.022C728.979 54.2367 728.68 54.54 728.456 54.932C728.241 55.324 728.134 55.7767 728.134 56.29C728.134 56.8033 728.241 57.2607 728.456 57.662C728.671 58.054 728.969 58.362 729.352 58.586C729.735 58.8007 730.159 58.908 730.626 58.908ZM736.443 52.58H737.787V57.984L742.337 52.58H743.555V60H742.211V54.596L737.675 60H736.443V52.58ZM752.113 52.58V60H750.909V57.648H748.753H748.599L746.975 60H745.533L747.339 57.466C746.779 57.298 746.35 57.0227 746.051 56.64C745.753 56.248 745.603 55.7627 745.603 55.184C745.603 54.3347 745.893 53.6907 746.471 53.252C747.05 52.804 747.848 52.58 748.865 52.58H752.113ZM746.975 55.226C746.975 55.7207 747.129 56.0893 747.437 56.332C747.755 56.5653 748.226 56.682 748.851 56.682H750.909V53.756H748.907C747.619 53.756 746.975 54.246 746.975 55.226ZM760.266 53.756H757.55V60H756.206V53.756H753.49V52.58H760.266V53.756ZM761.64 52.58H762.984V57.984L767.534 52.58H768.752V60H767.408V54.596L762.872 60H761.64V52.58ZM777.311 52.58V60H776.107V57.648H773.951H773.797L772.173 60H770.731L772.537 57.466C771.977 57.298 771.547 57.0227 771.249 56.64C770.95 56.248 770.801 55.7627 770.801 55.184C770.801 54.3347 771.09 53.6907 771.669 53.252C772.247 52.804 773.045 52.58 774.063 52.58H777.311ZM772.173 55.226C772.173 55.7207 772.327 56.0893 772.635 56.332C772.952 56.5653 773.423 56.682 774.049 56.682H776.107V53.756H774.105C772.817 53.756 772.173 54.246 772.173 55.226Z" fill="white"/>
<path d="M820.674 50.2H828.066V51.39H822.06V54.19H825.112C826.279 54.19 827.166 54.4327 827.772 54.918C828.379 55.4033 828.682 56.1033 828.682 57.018C828.682 57.9793 828.351 58.7167 827.688 59.23C827.035 59.7433 826.097 60 824.874 60H820.674V50.2ZM824.818 58.894C825.621 58.894 826.232 58.74 826.652 58.432C827.072 58.124 827.282 57.6713 827.282 57.074C827.282 55.8887 826.461 55.296 824.818 55.296H822.06V58.894H824.818ZM833.337 52.51C834.363 52.51 835.147 52.762 835.689 53.266C836.239 53.77 836.515 54.5213 836.515 55.52V60H835.241V59.02C835.017 59.3653 834.695 59.6313 834.275 59.818C833.864 59.9953 833.374 60.084 832.805 60.084C831.974 60.084 831.307 59.8833 830.803 59.482C830.308 59.0807 830.061 58.5533 830.061 57.9C830.061 57.2467 830.299 56.724 830.775 56.332C831.251 55.9307 832.007 55.73 833.043 55.73H835.171V55.464C835.171 54.8853 835.003 54.442 834.667 54.134C834.331 53.826 833.836 53.672 833.183 53.672C832.744 53.672 832.315 53.7467 831.895 53.896C831.475 54.036 831.12 54.2273 830.831 54.47L830.271 53.462C830.653 53.154 831.111 52.9207 831.643 52.762C832.175 52.594 832.739 52.51 833.337 52.51ZM833.029 59.048C833.542 59.048 833.985 58.936 834.359 58.712C834.732 58.4787 835.003 58.152 835.171 57.732V56.696H833.099C831.96 56.696 831.391 57.0787 831.391 57.844C831.391 58.2173 831.535 58.5113 831.825 58.726C832.114 58.9407 832.515 59.048 833.029 59.048ZM842.83 56.136C843.324 56.2667 843.707 56.4767 843.978 56.766C844.248 57.0553 844.384 57.4147 844.384 57.844C844.384 58.2827 844.234 58.6747 843.936 59.02C843.637 59.356 843.222 59.622 842.69 59.818C842.167 60.0047 841.579 60.098 840.926 60.098C840.375 60.098 839.834 60.028 839.302 59.888C838.779 59.7387 838.312 59.5287 837.902 59.258L838.308 58.236C838.662 58.46 839.068 58.6373 839.526 58.768C839.983 58.8893 840.445 58.95 840.912 58.95C841.546 58.95 842.05 58.8427 842.424 58.628C842.806 58.404 842.998 58.1053 842.998 57.732C842.998 57.3867 842.844 57.1207 842.536 56.934C842.237 56.7473 841.812 56.654 841.262 56.654H839.904V55.688H841.164C841.668 55.688 842.064 55.5993 842.354 55.422C842.643 55.2447 842.788 55.002 842.788 54.694C842.788 54.358 842.615 54.0967 842.27 53.91C841.934 53.7233 841.476 53.63 840.898 53.63C840.16 53.63 839.381 53.8213 838.56 54.204L838.196 53.168C839.101 52.7107 840.048 52.482 841.038 52.482C841.635 52.482 842.172 52.566 842.648 52.734C843.124 52.902 843.497 53.14 843.768 53.448C844.038 53.756 844.174 54.106 844.174 54.498C844.174 54.862 844.052 55.1887 843.81 55.478C843.567 55.7673 843.24 55.9867 842.83 56.136ZM849.773 55.1C850.706 55.1093 851.42 55.324 851.915 55.744C852.41 56.164 852.657 56.7567 852.657 57.522C852.657 58.3247 852.386 58.9453 851.845 59.384C851.313 59.8133 850.548 60.0233 849.549 60.014L846.427 60V52.58H847.771V55.086L849.773 55.1ZM853.763 52.58H855.107V60H853.763V52.58ZM849.451 58.992C850.058 59.0013 850.515 58.88 850.823 58.628C851.14 58.376 851.299 58.0027 851.299 57.508C851.299 57.0227 851.145 56.668 850.837 56.444C850.529 56.22 850.067 56.1033 849.451 56.094L847.771 56.066V58.978L849.451 58.992ZM865.498 56.136C865.992 56.2667 866.375 56.4767 866.646 56.766C866.916 57.0553 867.052 57.4147 867.052 57.844C867.052 58.2827 866.902 58.6747 866.604 59.02C866.305 59.356 865.89 59.622 865.358 59.818C864.835 60.0047 864.247 60.098 863.594 60.098C863.043 60.098 862.502 60.028 861.97 59.888C861.447 59.7387 860.98 59.5287 860.57 59.258L860.976 58.236C861.33 58.46 861.736 58.6373 862.194 58.768C862.651 58.8893 863.113 58.95 863.58 58.95C864.214 58.95 864.718 58.8427 865.092 58.628C865.474 58.404 865.666 58.1053 865.666 57.732C865.666 57.3867 865.512 57.1207 865.204 56.934C864.905 56.7473 864.48 56.654 863.93 56.654H862.572V55.688H863.832C864.336 55.688 864.732 55.5993 865.022 55.422C865.311 55.2447 865.456 55.002 865.456 54.694C865.456 54.358 865.283 54.0967 864.938 53.91C864.602 53.7233 864.144 53.63 863.566 53.63C862.828 53.63 862.049 53.8213 861.228 54.204L860.864 53.168C861.769 52.7107 862.716 52.482 863.706 52.482C864.303 52.482 864.84 52.566 865.316 52.734C865.792 52.902 866.165 53.14 866.436 53.448C866.706 53.756 866.842 54.106 866.842 54.498C866.842 54.862 866.72 55.1887 866.478 55.478C866.235 55.7673 865.908 55.9867 865.498 56.136ZM869.095 52.58H870.439V55.73H874.667V52.58H876.011V60H874.667V56.892H870.439V60H869.095V52.58ZM881.27 52.51C882.297 52.51 883.081 52.762 883.622 53.266C884.173 53.77 884.448 54.5213 884.448 55.52V60H883.174V59.02C882.95 59.3653 882.628 59.6313 882.208 59.818C881.798 59.9953 881.308 60.084 880.738 60.084C879.908 60.084 879.24 59.8833 878.736 59.482C878.242 59.0807 877.994 58.5533 877.994 57.9C877.994 57.2467 878.232 56.724 878.708 56.332C879.184 55.9307 879.94 55.73 880.976 55.73H883.104V55.464C883.104 54.8853 882.936 54.442 882.6 54.134C882.264 53.826 881.77 53.672 881.116 53.672C880.678 53.672 880.248 53.7467 879.828 53.896C879.408 54.036 879.054 54.2273 878.764 54.47L878.204 53.462C878.587 53.154 879.044 52.9207 879.576 52.762C880.108 52.594 880.673 52.51 881.27 52.51ZM880.962 59.048C881.476 59.048 881.919 58.936 882.292 58.712C882.666 58.4787 882.936 58.152 883.104 57.732V56.696H881.032C879.894 56.696 879.324 57.0787 879.324 57.844C879.324 58.2173 879.469 58.5113 879.758 58.726C880.048 58.9407 880.449 59.048 880.962 59.048ZM886.868 52.58H888.212V55.73H892.44V52.58H893.784V60H892.44V56.892H888.212V60H886.868V52.58ZM896.398 52.58H897.742V57.984L902.292 52.58H903.51V60H902.166V54.596L897.63 60H896.398V52.58ZM906.118 52.58H907.462V57.984L912.012 52.58H913.23V60H911.886V54.596L907.35 60H906.118V52.58ZM909.59 51.614C908.9 51.614 908.363 51.4507 907.98 51.124C907.598 50.788 907.402 50.3073 907.392 49.682H908.302C908.312 50.0273 908.428 50.3073 908.652 50.522C908.886 50.7273 909.194 50.83 909.576 50.83C909.959 50.83 910.267 50.7273 910.5 50.522C910.734 50.3073 910.855 50.0273 910.864 49.682H911.802C911.793 50.3073 911.592 50.788 911.2 51.124C910.808 51.4507 910.272 51.614 909.59 51.614Z" fill="white"/>
<path d="M960.09 55.688H958.046V60H956.674V50.2H958.046V54.456H960.118L963.198 50.2H964.696L961.196 54.946L964.864 60H963.268L960.09 55.688ZM968.817 52.51C969.844 52.51 970.628 52.762 971.169 53.266C971.72 53.77 971.995 54.5213 971.995 55.52V60H970.721V59.02C970.497 59.3653 970.175 59.6313 969.755 59.818C969.344 59.9953 968.854 60.084 968.285 60.084C967.454 60.084 966.787 59.8833 966.283 59.482C965.788 59.0807 965.541 58.5533 965.541 57.9C965.541 57.2467 965.779 56.724 966.255 56.332C966.731 55.9307 967.487 55.73 968.523 55.73H970.651V55.464C970.651 54.8853 970.483 54.442 970.147 54.134C969.811 53.826 969.316 53.672 968.663 53.672C968.224 53.672 967.795 53.7467 967.375 53.896C966.955 54.036 966.6 54.2273 966.311 54.47L965.751 53.462C966.134 53.154 966.591 52.9207 967.123 52.762C967.655 52.594 968.22 52.51 968.817 52.51ZM968.509 59.048C969.022 59.048 969.466 58.936 969.839 58.712C970.212 58.4787 970.483 58.152 970.651 57.732V56.696H968.579C967.44 56.696 966.871 57.0787 966.871 57.844C966.871 58.2173 967.016 58.5113 967.305 58.726C967.594 58.9407 967.996 59.048 968.509 59.048ZM978.349 52.51C979.068 52.51 979.712 52.6687 980.281 52.986C980.851 53.3033 981.294 53.7467 981.611 54.316C981.938 54.8853 982.101 55.5433 982.101 56.29C982.101 57.0367 981.938 57.6993 981.611 58.278C981.294 58.8473 980.851 59.2907 980.281 59.608C979.712 59.9253 979.068 60.084 978.349 60.084C977.817 60.084 977.327 59.9813 976.879 59.776C976.441 59.5707 976.067 59.272 975.759 58.88V62.716H974.415V52.58H975.703V53.756C976.002 53.3453 976.38 53.0373 976.837 52.832C977.295 52.6173 977.799 52.51 978.349 52.51ZM978.237 58.908C978.713 58.908 979.138 58.8007 979.511 58.586C979.894 58.362 980.193 58.054 980.407 57.662C980.631 57.2607 980.743 56.8033 980.743 56.29C980.743 55.7767 980.631 55.324 980.407 54.932C980.193 54.5307 979.894 54.2227 979.511 54.008C979.138 53.7933 978.713 53.686 978.237 53.686C977.771 53.686 977.346 53.798 976.963 54.022C976.59 54.2367 976.291 54.54 976.067 54.932C975.853 55.324 975.745 55.7767 975.745 56.29C975.745 56.8033 975.853 57.2607 976.067 57.662C976.282 58.054 976.581 58.362 976.963 58.586C977.346 58.8007 977.771 58.908 978.237 58.908ZM987.484 55.1C988.427 55.1093 989.145 55.324 989.64 55.744C990.135 56.164 990.382 56.7567 990.382 57.522C990.382 58.3247 990.111 58.9453 989.57 59.384C989.038 59.8133 988.273 60.0233 987.274 60.014L984.054 60V52.58H985.398V55.086L987.484 55.1ZM987.162 58.992C987.769 59.0013 988.226 58.88 988.534 58.628C988.851 58.376 989.01 58.0027 989.01 57.508C989.01 57.0227 988.856 56.668 988.548 56.444C988.249 56.22 987.787 56.1033 987.162 56.094L985.398 56.066V58.978L987.162 58.992ZM998.813 56.332C998.813 56.4347 998.803 56.57 998.785 56.738H992.765C992.849 57.3913 993.133 57.9187 993.619 58.32C994.113 58.712 994.725 58.908 995.453 58.908C996.339 58.908 997.053 58.6093 997.595 58.012L998.337 58.88C998.001 59.272 997.581 59.5707 997.077 59.776C996.582 59.9813 996.027 60.084 995.411 60.084C994.627 60.084 993.931 59.9253 993.325 59.608C992.718 59.2813 992.247 58.8287 991.911 58.25C991.584 57.6713 991.421 57.018 991.421 56.29C991.421 55.5713 991.579 54.9227 991.897 54.344C992.223 53.7653 992.667 53.3173 993.227 53C993.796 52.6733 994.435 52.51 995.145 52.51C995.854 52.51 996.484 52.6733 997.035 53C997.595 53.3173 998.029 53.7653 998.337 54.344C998.654 54.9227 998.813 55.5853 998.813 56.332ZM995.145 53.644C994.501 53.644 993.959 53.84 993.521 54.232C993.091 54.624 992.839 55.1373 992.765 55.772H997.525C997.45 55.1467 997.193 54.638 996.755 54.246C996.325 53.8447 995.789 53.644 995.145 53.644ZM1004.83 52.51C1005.55 52.51 1006.19 52.6687 1006.76 52.986C1007.33 53.3033 1007.78 53.7467 1008.09 54.316C1008.42 54.8853 1008.58 55.5433 1008.58 56.29C1008.58 57.0367 1008.42 57.6993 1008.09 58.278C1007.78 58.8473 1007.33 59.2907 1006.76 59.608C1006.19 59.9253 1005.55 60.084 1004.83 60.084C1004.3 60.084 1003.81 59.9813 1003.36 59.776C1002.92 59.5707 1002.55 59.272 1002.24 58.88V62.716H1000.9V52.58H1002.19V53.756C1002.48 53.3453 1002.86 53.0373 1003.32 52.832C1003.78 52.6173 1004.28 52.51 1004.83 52.51ZM1004.72 58.908C1005.2 58.908 1005.62 58.8007 1005.99 58.586C1006.38 58.362 1006.68 58.054 1006.89 57.662C1007.11 57.2607 1007.23 56.8033 1007.23 56.29C1007.23 55.7767 1007.11 55.324 1006.89 54.932C1006.68 54.5307 1006.38 54.2227 1005.99 54.008C1005.62 53.7933 1005.2 53.686 1004.72 53.686C1004.25 53.686 1003.83 53.798 1003.45 54.022C1003.07 54.2367 1002.77 54.54 1002.55 54.932C1002.34 55.324 1002.23 55.7767 1002.23 56.29C1002.23 56.8033 1002.34 57.2607 1002.55 57.662C1002.76 58.054 1003.06 58.362 1003.45 58.586C1003.83 58.8007 1004.25 58.908 1004.72 58.908ZM1013.11 52.51C1014.14 52.51 1014.92 52.762 1015.47 53.266C1016.02 53.77 1016.29 54.5213 1016.29 55.52V60H1015.02V59.02C1014.79 59.3653 1014.47 59.6313 1014.05 59.818C1013.64 59.9953 1013.15 60.084 1012.58 60.084C1011.75 60.084 1011.08 59.8833 1010.58 59.482C1010.09 59.0807 1009.84 58.5533 1009.84 57.9C1009.84 57.2467 1010.08 56.724 1010.55 56.332C1011.03 55.9307 1011.78 55.73 1012.82 55.73H1014.95V55.464C1014.95 54.8853 1014.78 54.442 1014.44 54.134C1014.11 53.826 1013.61 53.672 1012.96 53.672C1012.52 53.672 1012.09 53.7467 1011.67 53.896C1011.25 54.036 1010.9 54.2273 1010.61 54.47L1010.05 53.462C1010.43 53.154 1010.89 52.9207 1011.42 52.762C1011.95 52.594 1012.52 52.51 1013.11 52.51ZM1012.81 59.048C1013.32 59.048 1013.76 58.936 1014.14 58.712C1014.51 58.4787 1014.78 58.152 1014.95 57.732V56.696H1012.88C1011.74 56.696 1011.17 57.0787 1011.17 57.844C1011.17 58.2173 1011.31 58.5113 1011.6 58.726C1011.89 58.9407 1012.29 59.048 1012.81 59.048Z" fill="white"/>
<path d="M1513.63 54.918C1514.29 55.0767 1514.79 55.3613 1515.13 55.772C1515.47 56.1733 1515.65 56.6913 1515.65 57.326C1515.65 58.1753 1515.33 58.8333 1514.71 59.3C1514.09 59.7667 1513.19 60 1512.01 60H1507.53V50.2H1511.74C1512.81 50.2 1513.65 50.4193 1514.25 50.858C1514.85 51.2873 1515.16 51.908 1515.16 52.72C1515.16 53.252 1515.02 53.7047 1514.75 54.078C1514.49 54.4513 1514.12 54.7313 1513.63 54.918ZM1508.91 54.512H1511.64C1512.32 54.512 1512.84 54.3767 1513.2 54.106C1513.56 53.8353 1513.74 53.4387 1513.74 52.916C1513.74 52.3933 1513.56 51.9967 1513.2 51.726C1512.83 51.446 1512.31 51.306 1511.64 51.306H1508.91V54.512ZM1511.98 58.894C1513.48 58.894 1514.23 58.334 1514.23 57.214C1514.23 56.654 1514.04 56.2433 1513.66 55.982C1513.28 55.7113 1512.72 55.576 1511.98 55.576H1508.91V58.894H1511.98ZM1520.94 60.084C1520.2 60.084 1519.54 59.9207 1518.95 59.594C1518.36 59.2673 1517.9 58.8193 1517.56 58.25C1517.24 57.6713 1517.07 57.018 1517.07 56.29C1517.07 55.562 1517.24 54.9133 1517.56 54.344C1517.9 53.7653 1518.36 53.3173 1518.95 53C1519.54 52.6733 1520.2 52.51 1520.94 52.51C1521.68 52.51 1522.33 52.6733 1522.91 53C1523.5 53.3173 1523.96 53.7653 1524.28 54.344C1524.62 54.9133 1524.79 55.562 1524.79 56.29C1524.79 57.018 1524.62 57.6713 1524.28 58.25C1523.96 58.8193 1523.5 59.2673 1522.91 59.594C1522.33 59.9207 1521.68 60.084 1520.94 60.084ZM1520.94 58.908C1521.41 58.908 1521.84 58.8007 1522.21 58.586C1522.6 58.362 1522.89 58.054 1523.11 57.662C1523.32 57.2607 1523.43 56.8033 1523.43 56.29C1523.43 55.7767 1523.32 55.324 1523.11 54.932C1522.89 54.5307 1522.6 54.2227 1522.21 54.008C1521.84 53.7933 1521.41 53.686 1520.94 53.686C1520.46 53.686 1520.03 53.7933 1519.65 54.008C1519.28 54.2227 1518.98 54.5307 1518.75 54.932C1518.54 55.324 1518.43 55.7767 1518.43 56.29C1518.43 56.8033 1518.54 57.2607 1518.75 57.662C1518.98 58.054 1519.28 58.362 1519.65 58.586C1520.03 58.8007 1520.46 58.908 1520.94 58.908ZM1526.73 52.58H1528.07V57.984L1532.62 52.58H1533.84V60H1532.5V54.596L1527.96 60H1526.73V52.58ZM1530.2 51.614C1529.51 51.614 1528.97 51.4507 1528.59 51.124C1528.21 50.788 1528.01 50.3073 1528 49.682H1528.91C1528.92 50.0273 1529.04 50.3073 1529.26 50.522C1529.5 50.7273 1529.81 50.83 1530.19 50.83C1530.57 50.83 1530.88 50.7273 1531.11 50.522C1531.35 50.3073 1531.47 50.0273 1531.48 49.682H1532.41C1532.4 50.3073 1532.2 50.788 1531.81 51.124C1531.42 51.4507 1530.88 51.614 1530.2 51.614ZM1541.98 53.756H1539.26V60H1537.92V53.756H1535.2V52.58H1541.98V53.756ZM1543.35 52.58H1544.7V57.984L1549.25 52.58H1550.47V60H1549.12V54.596L1544.59 60H1543.35V52.58Z" fill="white"/>
<rect x="1485.18" y="45" width="6.63833" height="8.41108" rx="3.31917" stroke="white" stroke-width="2"/>
<path d="M1481 59.4111C1481 57.7543 1482.34 56.4111 1484 56.4111H1493.28C1494.94 56.4111 1496.28 57.7543 1496.28 59.4111V60.3229C1496.28 60.8752 1495.83 61.3229 1495.28 61.3229H1482C1481.45 61.3229 1481 60.8752 1481 60.3229V59.4111Z" stroke="white" stroke-width="2"/>
<path d="M1316.62 55.128C1317.26 55.3733 1317.75 55.7253 1318.09 56.184C1318.43 56.6427 1318.6 57.192 1318.6 57.832C1318.6 58.504 1318.42 59.0907 1318.06 59.592C1317.69 60.0827 1317.18 60.4613 1316.5 60.728C1315.83 60.9947 1315.04 61.128 1314.14 61.128C1313.24 61.128 1312.46 60.9947 1311.78 60.728C1311.12 60.4613 1310.61 60.0827 1310.25 59.592C1309.89 59.0907 1309.7 58.504 1309.7 57.832C1309.7 57.192 1309.87 56.6427 1310.2 56.184C1310.54 55.7253 1311.03 55.3733 1311.67 55.128C1311.16 54.8827 1310.77 54.5573 1310.5 54.152C1310.24 53.7467 1310.1 53.2667 1310.1 52.712C1310.1 52.0933 1310.27 51.5547 1310.6 51.096C1310.94 50.6373 1311.42 50.2853 1312.02 50.04C1312.63 49.7947 1313.34 49.672 1314.14 49.672C1314.95 49.672 1315.66 49.7947 1316.26 50.04C1316.88 50.2853 1317.36 50.6373 1317.69 51.096C1318.03 51.5547 1318.2 52.0933 1318.2 52.712C1318.2 53.256 1318.06 53.736 1317.78 54.152C1317.52 54.5573 1317.13 54.8827 1316.62 55.128ZM1314.14 50.968C1313.38 50.968 1312.78 51.1333 1312.34 51.464C1311.91 51.784 1311.69 52.2213 1311.69 52.776C1311.69 53.3307 1311.9 53.768 1312.33 54.088C1312.77 54.408 1313.37 54.568 1314.14 54.568C1314.91 54.568 1315.52 54.408 1315.96 54.088C1316.41 53.768 1316.63 53.3307 1316.63 52.776C1316.63 52.2213 1316.4 51.784 1315.94 51.464C1315.5 51.1333 1314.89 50.968 1314.14 50.968ZM1314.14 59.832C1315.02 59.832 1315.72 59.6507 1316.23 59.288C1316.74 58.9147 1317 58.4133 1317 57.784C1317 57.1653 1316.74 56.68 1316.23 56.328C1315.72 55.9653 1315.02 55.784 1314.14 55.784C1313.25 55.784 1312.56 55.9653 1312.06 56.328C1311.55 56.68 1311.3 57.1653 1311.3 57.784C1311.3 58.4133 1311.55 58.9147 1312.06 59.288C1312.56 59.6507 1313.25 59.832 1314.14 59.832ZM1331.21 55.128C1331.85 55.3733 1332.34 55.7253 1332.68 56.184C1333.02 56.6427 1333.19 57.192 1333.19 57.832C1333.19 58.504 1333.01 59.0907 1332.65 59.592C1332.29 60.0827 1331.77 60.4613 1331.1 60.728C1330.43 60.9947 1329.64 61.128 1328.73 61.128C1327.83 61.128 1327.05 60.9947 1326.38 60.728C1325.72 60.4613 1325.2 60.0827 1324.84 59.592C1324.48 59.0907 1324.3 58.504 1324.3 57.832C1324.3 57.192 1324.46 56.6427 1324.79 56.184C1325.14 55.7253 1325.63 55.3733 1326.27 55.128C1325.75 54.8827 1325.36 54.5573 1325.1 54.152C1324.83 53.7467 1324.7 53.2667 1324.7 52.712C1324.7 52.0933 1324.86 51.5547 1325.19 51.096C1325.54 50.6373 1326.01 50.2853 1326.62 50.04C1327.23 49.7947 1327.93 49.672 1328.73 49.672C1329.54 49.672 1330.25 49.7947 1330.86 50.04C1331.48 50.2853 1331.95 50.6373 1332.28 51.096C1332.62 51.5547 1332.79 52.0933 1332.79 52.712C1332.79 53.256 1332.66 53.736 1332.38 54.152C1332.11 54.5573 1331.72 54.8827 1331.21 55.128ZM1328.73 50.968C1327.97 50.968 1327.38 51.1333 1326.94 51.464C1326.5 51.784 1326.28 52.2213 1326.28 52.776C1326.28 53.3307 1326.5 53.768 1326.92 54.088C1327.36 54.408 1327.96 54.568 1328.73 54.568C1329.51 54.568 1330.12 54.408 1330.55 54.088C1331 53.768 1331.23 53.3307 1331.23 52.776C1331.23 52.2213 1331 51.784 1330.54 51.464C1330.09 51.1333 1329.49 50.968 1328.73 50.968ZM1328.73 59.832C1329.62 59.832 1330.31 59.6507 1330.83 59.288C1331.34 58.9147 1331.59 58.4133 1331.59 57.784C1331.59 57.1653 1331.34 56.68 1330.83 56.328C1330.31 55.9653 1329.62 55.784 1328.73 55.784C1327.84 55.784 1327.15 55.9653 1326.65 56.328C1326.15 56.68 1325.9 57.1653 1325.9 57.784C1325.9 58.4133 1326.15 58.9147 1326.65 59.288C1327.15 59.6507 1327.84 59.832 1328.73 59.832ZM1339.23 61.128C1338.35 61.128 1337.56 60.904 1336.87 60.456C1336.18 59.9973 1335.65 59.336 1335.25 58.472C1334.86 57.608 1334.66 56.584 1334.66 55.4C1334.66 54.216 1334.86 53.192 1335.25 52.328C1335.65 51.464 1336.18 50.808 1336.87 50.36C1337.56 49.9013 1338.35 49.672 1339.23 49.672C1340.11 49.672 1340.89 49.9013 1341.57 50.36C1342.26 50.808 1342.81 51.464 1343.2 52.328C1343.6 53.192 1343.79 54.216 1343.79 55.4C1343.79 56.584 1343.6 57.608 1343.2 58.472C1342.81 59.336 1342.26 59.9973 1341.57 60.456C1340.89 60.904 1340.11 61.128 1339.23 61.128ZM1339.23 59.704C1340.13 59.704 1340.85 59.336 1341.38 58.6C1341.92 57.864 1342.19 56.7973 1342.19 55.4C1342.19 54.0027 1341.92 52.936 1341.38 52.2C1340.85 51.464 1340.13 51.096 1339.23 51.096C1338.33 51.096 1337.6 51.464 1337.06 52.2C1336.53 52.936 1336.26 54.0027 1336.26 55.4C1336.26 56.7973 1336.53 57.864 1337.06 58.6C1337.6 59.336 1338.33 59.704 1339.23 59.704ZM1349.91 61.128C1349.02 61.128 1348.23 60.904 1347.54 60.456C1346.86 59.9973 1346.32 59.336 1345.92 58.472C1345.53 57.608 1345.33 56.584 1345.33 55.4C1345.33 54.216 1345.53 53.192 1345.92 52.328C1346.32 51.464 1346.86 50.808 1347.54 50.36C1348.23 49.9013 1349.02 49.672 1349.91 49.672C1350.78 49.672 1351.56 49.9013 1352.24 50.36C1352.94 50.808 1353.48 51.464 1353.87 52.328C1354.27 53.192 1354.47 54.216 1354.47 55.4C1354.47 56.584 1354.27 57.608 1353.87 58.472C1353.48 59.336 1352.94 59.9973 1352.24 60.456C1351.56 60.904 1350.78 61.128 1349.91 61.128ZM1349.91 59.704C1350.8 59.704 1351.52 59.336 1352.05 58.6C1352.59 57.864 1352.87 56.7973 1352.87 55.4C1352.87 54.0027 1352.59 52.936 1352.05 52.2C1351.52 51.464 1350.8 51.096 1349.91 51.096C1349 51.096 1348.27 51.464 1347.73 52.2C1347.2 52.936 1346.93 54.0027 1346.93 55.4C1346.93 56.7973 1347.2 57.864 1347.73 58.6C1348.27 59.336 1349 59.704 1349.91 59.704ZM1363.93 49.672C1365.44 49.672 1366.59 50.1573 1367.4 51.128C1368.22 52.0987 1368.64 53.4747 1368.64 55.256C1368.64 56.504 1368.41 57.5707 1367.96 58.456C1367.53 59.3307 1366.91 59.9973 1366.11 60.456C1365.32 60.904 1364.4 61.128 1363.34 61.128C1362.8 61.128 1362.28 61.0747 1361.8 60.968C1361.32 60.8507 1360.91 60.6853 1360.56 60.472L1361.16 59.224C1361.71 59.576 1362.43 59.752 1363.32 59.752C1364.49 59.752 1365.39 59.3947 1366.04 58.68C1366.7 57.9547 1367.04 56.904 1367.04 55.528V55.128C1366.72 55.608 1366.27 55.976 1365.71 56.232C1365.14 56.4773 1364.51 56.6 1363.8 56.6C1363.07 56.6 1362.41 56.4613 1361.82 56.184C1361.24 55.9067 1360.79 55.512 1360.46 55C1360.14 54.4773 1359.98 53.88 1359.98 53.208C1359.98 52.504 1360.15 51.8853 1360.49 51.352C1360.84 50.8187 1361.32 50.408 1361.92 50.12C1362.51 49.8213 1363.18 49.672 1363.93 49.672ZM1364.08 55.304C1364.58 55.304 1365.02 55.208 1365.42 55.016C1365.81 54.824 1366.12 54.5627 1366.33 54.232C1366.56 53.9013 1366.67 53.5333 1366.67 53.128C1366.67 52.7333 1366.56 52.376 1366.35 52.056C1366.14 51.7253 1365.84 51.464 1365.44 51.272C1365.04 51.0693 1364.56 50.968 1364 50.968C1363.26 50.968 1362.66 51.1653 1362.2 51.56C1361.76 51.9547 1361.53 52.4827 1361.53 53.144C1361.53 53.8053 1361.76 54.3333 1362.22 54.728C1362.68 55.112 1363.3 55.304 1364.08 55.304ZM1373.37 54.264C1374.97 54.264 1376.15 54.568 1376.89 55.176C1377.65 55.7733 1378.03 56.5947 1378.03 57.64C1378.03 58.3013 1377.87 58.8987 1377.55 59.432C1377.24 59.9547 1376.77 60.3707 1376.13 60.68C1375.5 60.9787 1374.72 61.128 1373.79 61.128C1373 61.128 1372.24 61.0107 1371.5 60.776C1370.77 60.5307 1370.16 60.1947 1369.68 59.768L1370.41 58.504C1370.8 58.8667 1371.29 59.16 1371.89 59.384C1372.48 59.5973 1373.11 59.704 1373.77 59.704C1374.62 59.704 1375.27 59.528 1375.73 59.176C1376.2 58.8133 1376.43 58.3227 1376.43 57.704C1376.43 57.032 1376.17 56.5253 1375.66 56.184C1375.15 55.832 1374.28 55.656 1373.04 55.656H1370.49L1371.09 49.8H1377.41V51.192H1372.43L1372.13 54.264H1373.37ZM1383.94 61.128C1383.05 61.128 1382.26 60.904 1381.57 60.456C1380.89 59.9973 1380.35 59.336 1379.95 58.472C1379.56 57.608 1379.36 56.584 1379.36 55.4C1379.36 54.216 1379.56 53.192 1379.95 52.328C1380.35 51.464 1380.89 50.808 1381.57 50.36C1382.26 49.9013 1383.05 49.672 1383.94 49.672C1384.81 49.672 1385.59 49.9013 1386.27 50.36C1386.97 50.808 1387.51 51.464 1387.91 52.328C1388.3 53.192 1388.5 54.216 1388.5 55.4C1388.5 56.584 1388.3 57.608 1387.91 58.472C1387.51 59.336 1386.97 59.9973 1386.27 60.456C1385.59 60.904 1384.81 61.128 1383.94 61.128ZM1383.94 59.704C1384.83 59.704 1385.55 59.336 1386.08 58.6C1386.63 57.864 1386.9 56.7973 1386.9 55.4C1386.9 54.0027 1386.63 52.936 1386.08 52.2C1385.55 51.464 1384.83 51.096 1383.94 51.096C1383.03 51.096 1382.31 51.464 1381.76 52.2C1381.23 52.936 1380.96 54.0027 1380.96 55.4C1380.96 56.7973 1381.23 57.864 1381.76 58.6C1382.31 59.336 1383.03 59.704 1383.94 59.704ZM1390.29 55.944H1394.59V57.272H1390.29V55.944ZM1400.24 54.504C1401.34 54.6107 1402.18 54.952 1402.76 55.528C1403.33 56.0933 1403.62 56.8187 1403.62 57.704C1403.62 58.344 1403.46 58.9253 1403.14 59.448C1402.82 59.96 1402.34 60.3707 1401.7 60.68C1401.07 60.9787 1400.3 61.128 1399.38 61.128C1398.58 61.128 1397.81 61.0107 1397.08 60.776C1396.34 60.5307 1395.74 60.1947 1395.27 59.768L1396 58.504C1396.39 58.8667 1396.88 59.16 1397.48 59.384C1398.07 59.5973 1398.71 59.704 1399.38 59.704C1400.21 59.704 1400.86 59.528 1401.32 59.176C1401.78 58.824 1402.02 58.3387 1402.02 57.72C1402.02 57.1013 1401.79 56.6213 1401.33 56.28C1400.87 55.9387 1400.18 55.768 1399.25 55.768H1398.36V54.648L1401.17 51.192H1395.78V49.8H1403.17V50.888L1400.24 54.504ZM1409.32 54.504C1410.42 54.6107 1411.26 54.952 1411.83 55.528C1412.41 56.0933 1412.7 56.8187 1412.7 57.704C1412.7 58.344 1412.54 58.9253 1412.22 59.448C1411.9 59.96 1411.42 60.3707 1410.78 60.68C1410.15 60.9787 1409.37 61.128 1408.46 61.128C1407.66 61.128 1406.89 61.0107 1406.15 60.776C1405.42 60.5307 1404.81 60.1947 1404.35 59.768L1405.08 58.504C1405.47 58.8667 1405.96 59.16 1406.55 59.384C1407.15 59.5973 1407.79 59.704 1408.46 59.704C1409.29 59.704 1409.93 59.528 1410.39 59.176C1410.86 58.824 1411.1 58.3387 1411.1 57.72C1411.1 57.1013 1410.87 56.6213 1410.41 56.28C1409.95 55.9387 1409.26 55.768 1408.33 55.768H1407.43V54.648L1410.25 51.192H1404.86V49.8H1412.25V50.888L1409.32 54.504ZM1414.33 55.944H1418.64V57.272H1414.33V55.944ZM1423.95 49.672C1425.45 49.672 1426.61 50.1573 1427.42 51.128C1428.24 52.0987 1428.65 53.4747 1428.65 55.256C1428.65 56.504 1428.43 57.5707 1427.98 58.456C1427.54 59.3307 1426.92 59.9973 1426.12 60.456C1425.33 60.904 1424.41 61.128 1423.35 61.128C1422.81 61.128 1422.3 61.0747 1421.82 60.968C1421.34 60.8507 1420.92 60.6853 1420.57 60.472L1421.18 59.224C1421.72 59.576 1422.44 59.752 1423.34 59.752C1424.5 59.752 1425.41 59.3947 1426.06 58.68C1426.72 57.9547 1427.05 56.904 1427.05 55.528V55.128C1426.73 55.608 1426.29 55.976 1425.72 56.232C1425.16 56.4773 1424.52 56.6 1423.82 56.6C1423.08 56.6 1422.42 56.4613 1421.83 56.184C1421.26 55.9067 1420.81 55.512 1420.47 55C1420.15 54.4773 1419.99 53.88 1419.99 53.208C1419.99 52.504 1420.17 51.8853 1420.51 51.352C1420.86 50.8187 1421.33 50.408 1421.93 50.12C1422.53 49.8213 1423.2 49.672 1423.95 49.672ZM1424.09 55.304C1424.59 55.304 1425.04 55.208 1425.43 55.016C1425.83 54.824 1426.13 54.5627 1426.35 54.232C1426.57 53.9013 1426.68 53.5333 1426.68 53.128C1426.68 52.7333 1426.58 52.376 1426.36 52.056C1426.16 51.7253 1425.86 51.464 1425.45 51.272C1425.06 51.0693 1424.58 50.968 1424.01 50.968C1423.27 50.968 1422.68 51.1653 1422.22 51.56C1421.77 51.9547 1421.55 52.4827 1421.55 53.144C1421.55 53.8053 1421.78 54.3333 1422.23 54.728C1422.69 55.112 1423.31 55.304 1424.09 55.304ZM1437.04 55.128C1437.68 55.3733 1438.17 55.7253 1438.51 56.184C1438.85 56.6427 1439.02 57.192 1439.02 57.832C1439.02 58.504 1438.84 59.0907 1438.48 59.592C1438.12 60.0827 1437.6 60.4613 1436.93 60.728C1436.25 60.9947 1435.46 61.128 1434.56 61.128C1433.66 61.128 1432.88 60.9947 1432.21 60.728C1431.54 60.4613 1431.03 60.0827 1430.67 59.592C1430.31 59.0907 1430.13 58.504 1430.13 57.832C1430.13 57.192 1430.29 56.6427 1430.62 56.184C1430.96 55.7253 1431.45 55.3733 1432.09 55.128C1431.58 54.8827 1431.19 54.5573 1430.93 54.152C1430.66 53.7467 1430.53 53.2667 1430.53 52.712C1430.53 52.0933 1430.69 51.5547 1431.02 51.096C1431.36 50.6373 1431.84 50.2853 1432.45 50.04C1433.05 49.7947 1433.76 49.672 1434.56 49.672C1435.37 49.672 1436.08 49.7947 1436.69 50.04C1437.3 50.2853 1437.78 50.6373 1438.11 51.096C1438.45 51.5547 1438.62 52.0933 1438.62 52.712C1438.62 53.256 1438.48 53.736 1438.21 54.152C1437.94 54.5573 1437.55 54.8827 1437.04 55.128ZM1434.56 50.968C1433.8 50.968 1433.2 51.1333 1432.77 51.464C1432.33 51.784 1432.11 52.2213 1432.11 52.776C1432.11 53.3307 1432.32 53.768 1432.75 54.088C1433.19 54.408 1433.79 54.568 1434.56 54.568C1435.34 54.568 1435.94 54.408 1436.38 54.088C1436.83 53.768 1437.05 53.3307 1437.05 52.776C1437.05 52.2213 1436.82 51.784 1436.37 51.464C1435.92 51.1333 1435.32 50.968 1434.56 50.968ZM1434.56 59.832C1435.44 59.832 1436.14 59.6507 1436.65 59.288C1437.17 58.9147 1437.42 58.4133 1437.42 57.784C1437.42 57.1653 1437.17 56.68 1436.65 56.328C1436.14 55.9653 1435.44 55.784 1434.56 55.784C1433.67 55.784 1432.98 55.9653 1432.48 56.328C1431.98 56.68 1431.73 57.1653 1431.73 57.784C1431.73 58.4133 1431.98 58.9147 1432.48 59.288C1432.98 59.6507 1433.67 59.832 1434.56 59.832Z" fill="white"/>
<path d="M1121.95 50.2V60H1120.55V55.632H1114.93V60H1113.53V50.2H1114.93V54.414H1120.55V50.2H1121.95ZM1124.79 52.58H1126.13V57.984L1130.68 52.58H1131.9V60H1130.55V54.596L1126.02 60H1124.79V52.58ZM1141.26 56.864H1139.81V60H1138.47V56.864H1137.03L1134.98 60H1133.39L1135.94 56.164L1133.58 52.58H1135.01L1137.01 55.716H1138.47V52.58H1139.81V55.716H1141.27L1143.27 52.58H1144.71L1142.36 56.178L1144.91 60H1143.31L1141.26 56.864ZM1146.39 52.58H1147.73V55.73H1151.96V52.58H1153.3V60H1151.96V56.892H1147.73V60H1146.39V52.58ZM1155.92 52.58H1157.26V57.984L1161.81 52.58H1163.03V60H1161.69V54.596L1157.15 60H1155.92V52.58ZM1165.64 52.58H1166.98V57.984L1171.53 52.58H1172.75V60H1171.41V54.596L1166.87 60H1165.64V52.58ZM1169.11 51.614C1168.42 51.614 1167.88 51.4507 1167.5 51.124C1167.12 50.788 1166.92 50.3073 1166.91 49.682H1167.82C1167.83 50.0273 1167.95 50.3073 1168.17 50.522C1168.41 50.7273 1168.71 50.83 1169.1 50.83C1169.48 50.83 1169.79 50.7273 1170.02 50.522C1170.25 50.3073 1170.37 50.0273 1170.38 49.682H1171.32C1171.31 50.3073 1171.11 50.788 1170.72 51.124C1170.33 51.4507 1169.79 51.614 1169.11 51.614ZM1187.77 50.2V60H1186.37V55.632H1180.74V60H1179.34V50.2H1180.74V54.414H1186.37V50.2H1187.77ZM1193.78 60.084C1193.04 60.084 1192.38 59.9207 1191.79 59.594C1191.2 59.2673 1190.74 58.8193 1190.41 58.25C1190.08 57.6713 1189.92 57.018 1189.92 56.29C1189.92 55.562 1190.08 54.9133 1190.41 54.344C1190.74 53.7653 1191.2 53.3173 1191.79 53C1192.38 52.6733 1193.04 52.51 1193.78 52.51C1194.52 52.51 1195.18 52.6733 1195.75 53C1196.34 53.3173 1196.8 53.7653 1197.13 54.344C1197.46 54.9133 1197.63 55.562 1197.63 56.29C1197.63 57.018 1197.46 57.6713 1197.13 58.25C1196.8 58.8193 1196.34 59.2673 1195.75 59.594C1195.18 59.9207 1194.52 60.084 1193.78 60.084ZM1193.78 58.908C1194.26 58.908 1194.68 58.8007 1195.05 58.586C1195.44 58.362 1195.74 58.054 1195.95 57.662C1196.17 57.2607 1196.27 56.8033 1196.27 56.29C1196.27 55.7767 1196.17 55.324 1195.95 54.932C1195.74 54.5307 1195.44 54.2227 1195.05 54.008C1194.68 53.7933 1194.26 53.686 1193.78 53.686C1193.3 53.686 1192.88 53.7933 1192.49 54.008C1192.12 54.2227 1191.82 54.5307 1191.6 54.932C1191.38 55.324 1191.27 55.7767 1191.27 56.29C1191.27 56.8033 1191.38 57.2607 1191.6 57.662C1191.82 58.054 1192.12 58.362 1192.49 58.586C1192.88 58.8007 1193.3 58.908 1193.78 58.908ZM1204.63 56.15C1205.59 56.3927 1206.07 56.9947 1206.07 57.956C1206.07 58.6093 1205.82 59.1133 1205.33 59.468C1204.84 59.8227 1204.11 60 1203.14 60H1199.57V52.58H1203.02C1203.89 52.58 1204.58 52.748 1205.07 53.084C1205.57 53.4107 1205.82 53.8773 1205.82 54.484C1205.82 54.876 1205.71 55.2167 1205.49 55.506C1205.29 55.786 1205 56.0007 1204.63 56.15ZM1200.89 55.772H1202.9C1203.42 55.772 1203.8 55.6787 1204.07 55.492C1204.34 55.3053 1204.47 55.0347 1204.47 54.68C1204.47 53.9707 1203.95 53.616 1202.9 53.616H1200.89V55.772ZM1203.04 58.964C1203.6 58.964 1204.02 58.8753 1204.3 58.698C1204.58 58.5207 1204.72 58.2453 1204.72 57.872C1204.72 57.4893 1204.59 57.2047 1204.33 57.018C1204.08 56.8313 1203.68 56.738 1203.13 56.738H1200.89V58.964H1203.04ZM1213.63 53.756H1209.52V60H1208.17V52.58H1213.63V53.756ZM1217.86 60.084C1217.12 60.084 1216.46 59.9207 1215.87 59.594C1215.28 59.2673 1214.82 58.8193 1214.48 58.25C1214.16 57.6713 1213.99 57.018 1213.99 56.29C1213.99 55.562 1214.16 54.9133 1214.48 54.344C1214.82 53.7653 1215.28 53.3173 1215.87 53C1216.46 52.6733 1217.12 52.51 1217.86 52.51C1218.59 52.51 1219.25 52.6733 1219.83 53C1220.42 53.3173 1220.88 53.7653 1221.2 54.344C1221.54 54.9133 1221.71 55.562 1221.71 56.29C1221.71 57.018 1221.54 57.6713 1221.2 58.25C1220.88 58.8193 1220.42 59.2673 1219.83 59.594C1219.25 59.9207 1218.59 60.084 1217.86 60.084ZM1217.86 58.908C1218.33 58.908 1218.76 58.8007 1219.13 58.586C1219.51 58.362 1219.81 58.054 1220.03 57.662C1220.24 57.2607 1220.35 56.8033 1220.35 56.29C1220.35 55.7767 1220.24 55.324 1220.03 54.932C1219.81 54.5307 1219.51 54.2227 1219.13 54.008C1218.76 53.7933 1218.33 53.686 1217.86 53.686C1217.38 53.686 1216.95 53.7933 1216.57 54.008C1216.2 54.2227 1215.9 54.5307 1215.67 54.932C1215.46 55.324 1215.35 55.7767 1215.35 56.29C1215.35 56.8033 1215.46 57.2607 1215.67 57.662C1215.9 58.054 1216.2 58.362 1216.57 58.586C1216.95 58.8007 1217.38 58.908 1217.86 58.908ZM1227.58 52.51C1228.3 52.51 1228.94 52.6687 1229.51 52.986C1230.08 53.3033 1230.53 53.7467 1230.84 54.316C1231.17 54.8853 1231.33 55.5433 1231.33 56.29C1231.33 57.0367 1231.17 57.6993 1230.84 58.278C1230.53 58.8473 1230.08 59.2907 1229.51 59.608C1228.94 59.9253 1228.3 60.084 1227.58 60.084C1227.05 60.084 1226.56 59.9813 1226.11 59.776C1225.67 59.5707 1225.3 59.272 1224.99 58.88V62.716H1223.65V52.58H1224.94V53.756C1225.23 53.3453 1225.61 53.0373 1226.07 52.832C1226.53 52.6173 1227.03 52.51 1227.58 52.51ZM1227.47 58.908C1227.95 58.908 1228.37 58.8007 1228.74 58.586C1229.13 58.362 1229.43 58.054 1229.64 57.662C1229.86 57.2607 1229.98 56.8033 1229.98 56.29C1229.98 55.7767 1229.86 55.324 1229.64 54.932C1229.43 54.5307 1229.13 54.2227 1228.74 54.008C1228.37 53.7933 1227.95 53.686 1227.47 53.686C1227 53.686 1226.58 53.798 1226.2 54.022C1225.82 54.2367 1225.52 54.54 1225.3 54.932C1225.09 55.324 1224.98 55.7767 1224.98 56.29C1224.98 56.8033 1225.09 57.2607 1225.3 57.662C1225.51 58.054 1225.81 58.362 1226.2 58.586C1226.58 58.8007 1227 58.908 1227.47 58.908ZM1236.46 60.084C1235.73 60.084 1235.06 59.9207 1234.48 59.594C1233.89 59.2673 1233.43 58.8193 1233.09 58.25C1232.76 57.6713 1232.6 57.018 1232.6 56.29C1232.6 55.562 1232.76 54.9133 1233.09 54.344C1233.43 53.7653 1233.89 53.3173 1234.48 53C1235.06 52.6733 1235.73 52.51 1236.46 52.51C1237.2 52.51 1237.86 52.6733 1238.44 53C1239.03 53.3173 1239.48 53.7653 1239.81 54.344C1240.15 54.9133 1240.31 55.562 1240.31 56.29C1240.31 57.018 1240.15 57.6713 1239.81 58.25C1239.48 58.8193 1239.03 59.2673 1238.44 59.594C1237.86 59.9207 1237.2 60.084 1236.46 60.084ZM1236.46 58.908C1236.94 58.908 1237.37 58.8007 1237.74 58.586C1238.12 58.362 1238.42 58.054 1238.63 57.662C1238.85 57.2607 1238.96 56.8033 1238.96 56.29C1238.96 55.7767 1238.85 55.324 1238.63 54.932C1238.42 54.5307 1238.12 54.2227 1237.74 54.008C1237.37 53.7933 1236.94 53.686 1236.46 53.686C1235.99 53.686 1235.56 53.7933 1235.18 54.008C1234.8 54.2227 1234.5 54.5307 1234.28 54.932C1234.07 55.324 1233.96 55.7767 1233.96 56.29C1233.96 56.8033 1234.07 57.2607 1234.28 57.662C1234.5 58.054 1234.8 58.362 1235.18 58.586C1235.56 58.8007 1235.99 58.908 1236.46 58.908ZM1249.75 58.824V61.722H1248.49V60H1242.28V61.722H1241.01V58.824H1241.4C1241.88 58.796 1242.21 58.46 1242.38 57.816C1242.56 57.172 1242.68 56.262 1242.75 55.086L1242.86 52.58H1248.61V58.824H1249.75ZM1243.98 55.184C1243.94 56.1173 1243.86 56.892 1243.74 57.508C1243.63 58.1147 1243.42 58.5533 1243.11 58.824H1247.27V53.756H1244.05L1243.98 55.184Z" fill="white"/>
<path d="M1112 61.4H1250.19V62.1H1112V61.4Z" fill="white"/>
<path d="M1102 54.5C1102 57.3282 1100.13 59.9545 1098.05 61.9699C1097.04 62.9575 1096.01 63.754 1095.25 64.304C1094.96 64.5123 1094.7 64.6843 1094.5 64.8171C1094.3 64.6843 1094.04 64.5123 1093.75 64.304C1092.99 63.754 1091.96 62.9575 1090.95 61.9699C1088.87 59.9545 1087 57.3282 1087 54.5C1087 50.3579 1090.36 47 1094.5 47C1098.64 47 1102 50.3579 1102 54.5Z" stroke="white" stroke-width="2"/>
<circle cx="1094.5" cy="53.5" r="2.5" fill="white"/>
<path d="M1261 55L1265 59L1269 55" stroke="white" stroke-width="2" stroke-linecap="round"/>
</svg>
