<svg width="53" height="47" viewBox="0 0 53 47" fill="none" xmlns="http://www.w3.org/2000/svg">
<path d="M49.6174 3.49212H47.2617V1.25496C47.2617 0.795681 46.8913 0.425293 46.432 0.425293H41.4095C40.9503 0.425293 40.5799 0.795681 40.5799 1.25496V3.49212H13.0377V1.25496C13.0377 0.795681 12.6673 0.425293 12.208 0.425293H7.18555C6.72626 0.425293 6.35587 0.795681 6.35587 1.25496V3.49212H4.41503C2.3853 3.49212 0.725952 5.15146 0.725952 7.1812V27.4637C0.725952 27.923 1.09634 28.2934 1.55563 28.2934C2.01491 28.2934 2.3853 27.923 2.3853 27.4637V7.1812C2.3853 6.07003 3.28905 5.15146 4.41503 5.15146H49.6322C50.5211 5.15146 51.2471 5.87743 51.2471 6.76636V34.3233C51.2471 35.2123 50.5211 35.9382 49.6322 35.9382H47.8543V32.7825C47.8543 32.3232 47.4839 31.9528 47.0246 31.9528H38.076C37.6167 31.9528 37.2464 32.3232 37.2464 32.7825V35.9382H23.8531L27.0088 35.0789C28.6385 34.6345 30.0756 33.7011 31.1423 32.3973L36.5056 25.8785C36.6093 25.7451 36.6834 25.5821 36.6982 25.4192L37.1723 19.1966C37.2167 18.5892 36.8463 17.9818 36.2833 17.7447C36.5352 17.5965 36.713 17.3299 36.713 17.0187C36.713 16.5595 36.3426 16.1891 35.8833 16.1891H32.2387C31.7794 16.1891 31.409 16.5595 31.409 17.0187C31.409 17.478 31.7794 17.8484 32.2387 17.8484H34.9648C34.8759 17.9077 34.787 17.9818 34.7129 18.0558L31.6609 21.1078C31.0683 21.7005 30.5793 22.4412 30.0608 23.0931C29.7793 23.4487 29.8237 23.9821 30.1941 24.2636C30.5497 24.5451 31.0831 24.5006 31.3646 24.1302L32.3276 22.945L34.787 25.4044L29.9126 31.3454C29.0533 32.3825 27.9274 33.1233 26.6236 33.4788L13.4674 37.2716C12.4451 37.5976 12.9636 39.1829 13.9711 38.8569L16.8601 37.9235V44.9017H15.7045C15.2452 44.9017 14.8748 45.272 14.8748 45.7313C14.8748 46.1906 15.2452 46.561 15.7045 46.561H20.8011C21.2603 46.561 21.6307 46.1906 21.6307 45.7313C21.6307 45.272 21.2603 44.9017 20.8011 44.9017H18.5343V37.6124H49.6618C51.4693 37.6124 52.9361 36.1457 52.9361 34.3382V6.78118C52.8916 4.95886 51.4249 3.49212 49.6174 3.49212ZM42.2244 2.08464H45.5875V3.4773H42.2244V2.08464ZM8.0004 2.08464H11.3635V3.4773H8.0004V2.08464ZM35.4685 19.6115L35.1722 23.4635L33.3943 21.6856L35.4685 19.6115ZM38.8761 35.9382V33.6122H46.1653V35.9382H38.8761Z" fill="#00093C"/>
</svg>
